<svg xmlns="http://www.w3.org/2000/svg" width="840.991" height="693.493" viewBox="0 0 840.991 693.493">
  <g id="Obraz" transform="translate(64.923 0)">
    <path id="Path_62" data-name="Path 62" d="M478.963,339.142C444.436,203.373,325.135,105.368,185.1,101.437,111.067,99.359,33.165,123.912-23.554,209.832-124.944,363.424-17.323,469.561,57.708,520a469.463,469.463,0,0,1,97.041,87.22c50.681,60.141,148.18,134.875,264.3,17.778C503.206,540.123,501.962,429.577,478.963,339.142Z" transform="translate(0 -17.28)" fill="#f7f7f7"/>
    <g id="Group_4" data-name="Group 4" transform="translate(572.134 454.429)">
      <circle id="Ellipse_22" data-name="Ellipse 22" cx="14.951" cy="14.951" r="14.951" transform="translate(22.014 122.126)" fill="#f7f7f7"/>
      <circle id="Ellipse_23" data-name="Ellipse 23" cx="14.951" cy="14.951" r="14.951" transform="translate(115.034 58.885)" fill="#f7f7f7"/>
      <circle id="Ellipse_24" data-name="Ellipse 24" cx="14.951" cy="14.951" r="14.951" fill="#f7f7f7"/>
    </g>
    <g id="Group_5" data-name="Group 5" transform="translate(-11.073 0)">
      <path id="Path_63" data-name="Path 63" d="M735,198.226H890.106V96.205H747.534Z" transform="translate(-125.36 -16.409)" fill="#f7f7f7"/>
      <circle id="Ellipse_25" data-name="Ellipse 25" cx="14.101" cy="14.101" r="14.101" transform="translate(655.674 97.084)" fill="#3f3d56"/>
      <path id="Path_64" data-name="Path 64" d="M758.9,60.526c-1.337-1.517-2.721-3.027-4.116-4.487l-1.46,1.393c1.377,1.442,2.743,2.93,4.062,4.427Z" transform="translate(-128.486 -9.558)" fill="#3f3d56"/>
      <path id="Path_65" data-name="Path 65" d="M692.823,37.871c-3.083-2.736-6.317-5.374-9.612-7.842L682,31.643c3.251,2.435,6.441,5.038,9.482,7.737ZM672.984,23.01c-3.49-2.186-7.115-4.254-10.774-6.145l-.926,1.792c3.61,1.865,7.186,3.905,10.628,6.062ZM650.963,11.633c-3.8-1.578-7.711-3.021-11.637-4.287l-.62,1.92c3.874,1.249,7.736,2.673,11.481,4.23ZM626.915,5.984l.462-1.964c-4.015-.944-8.112-1.734-12.175-2.345l-.3,1.995C618.911,4.273,622.953,5.051,626.915,5.984ZM602.74,2.348l.134-2.013c-4.109-.275-8.279-.382-12.4-.316l.031,2.017c4.062-.065,8.176.041,12.23.312ZM578.3,2.74,578.1.732c-4.1.407-8.234.992-12.288,1.739l.365,1.984c4-.737,8.079-1.314,12.122-1.715ZM502.681,268.574c-3.222-2.468-6.384-5.1-9.4-7.836l-1.355,1.5c3.054,2.769,6.258,5.44,9.525,7.942ZM554.236,7.167l-.528-1.948c-3.973,1.077-7.954,2.335-11.83,3.737l.687,1.9C546.389,9.471,550.316,8.23,554.236,7.167ZM484.565,252.154c-2.774-2.967-5.46-6.086-7.983-9.273L475,244.133c2.557,3.23,5.279,6.392,8.09,9.4ZM531.236,15.487l-.84-1.836c-3.746,1.715-7.466,3.606-11.057,5.62l.986,1.759C523.869,19.044,527.54,17.178,531.236,15.487Zm-61.849,217.5c-2.254-3.382-4.4-6.9-6.363-10.454l-1.765.978c2,3.6,4.165,7.166,6.449,10.594ZM509.906,27.45l-1.127-1.673c-3.415,2.3-6.777,4.773-9.991,7.347l1.261,1.575C503.221,32.159,506.537,29.721,509.906,27.45ZM457.538,211.59c-1.671-3.705-3.209-7.525-4.571-11.353l-1.9.676c1.381,3.881,2.94,7.752,4.633,11.507ZM490.821,42.73l-1.386-1.466c-2.994,2.831-5.9,5.819-8.651,8.881l1.5,1.347C484.995,48.469,487.866,45.522,490.821,42.73ZM449.344,188.546c-1.043-3.934-1.933-7.954-2.647-11.949l-1.987.354c.723,4.049,1.626,8.124,2.683,12.112ZM474.5,60.925,472.9,59.707c-2.486,3.282-4.863,6.707-7.067,10.181l1.7,1.08C469.707,67.542,472.052,64.162,474.5,60.925ZM445.047,164.469c-.38-4.044-.594-8.157-.637-12.223l-2.017.022c.043,4.121.26,8.289.646,12.389Zm16.367-82.909-1.787-.935c-1.909,3.643-3.689,7.417-5.293,11.214l1.859.785c1.583-3.747,3.339-7.468,5.221-11.064Zm-16.626,58.453c.293-4.044.76-8.135,1.388-12.157l-1.994-.311c-.636,4.077-1.11,8.223-1.407,12.322Zm7.113-35.933-1.917-.63c-1.284,3.906-2.427,7.932-3.39,11.93l1.962.473c.95-3.948,2.078-7.918,3.345-11.773Z" transform="translate(-75.453 0)" fill="#3f3d56"/>
      <path id="Path_66" data-name="Path 66" d="M532.21,335.516c-1.722-1.006-3.447-2.062-5.127-3.138l-1.089,1.7c1.7,1.091,3.452,2.162,5.2,3.181Z" transform="translate(-89.712 -56.69)" fill="#3f3d56"/>
      <path id="Path_67" data-name="Path 67" d="M890.021,169.223l-30.912-30.912L831.13,166.289l-53.084-53.084L734.5,157.58v43.546H890.021Z" transform="translate(-125.274 -19.308)" fill="#db0011"/>
      <path id="Path_68" data-name="Path 68" d="M259.127,523.205V723.1H2v-199.9ZM35.577,576.663H55.491V556.748H35.577Z" transform="translate(-0.341 -89.237)" fill="#3f3d56"/>
      <path id="Path_69" data-name="Path 69" d="M289,686.261c.918,1.8,1.884,3.607,2.872,5.368l1.76-.987c-.975-1.738-1.929-3.52-2.835-5.3Z" transform="translate(-49.291 -116.891)" fill="#3f3d56"/>
      <path id="Path_70" data-name="Path 70" d="M300.314,669.153c2.307,3.416,4.783,6.774,7.362,9.983l1.573-1.263c-2.544-3.166-4.988-6.48-7.263-9.85Zm15.527,19.322c2.837,2.985,5.835,5.888,8.911,8.629l1.342-1.506c-3.034-2.7-5.992-5.567-8.79-8.512Zm18.5,16.49c3.285,2.472,6.719,4.841,10.207,7.043l1.077-1.706c-3.441-2.172-6.83-4.511-10.071-6.949Zm21.892,11.445L355.3,718.2c3.655,1.912,7.427,3.694,11.211,5.3l.787-1.858C363.566,720.055,359.844,718.3,356.238,716.411Zm22.514,9.525-.63,1.917c3.912,1.286,7.925,2.426,11.93,3.385l.47-1.962c-3.951-.946-7.91-2.069-11.77-3.339Zm23.775,5.692-.305,1.994c4.073.624,8.222,1.084,12.335,1.368l.139-2.013c-4.058-.28-8.151-.733-12.169-1.349ZM541.8,492.9c2.508,3.191,4.916,6.529,7.156,9.923l1.684-1.111c-2.27-3.44-4.711-6.825-7.253-10.059ZM426.933,733.315l.028,2.017c4.117-.057,8.284-.286,12.387-.682l-.193-2.008C435.106,733.032,430.993,733.259,426.933,733.315ZM555.266,513.308c1.95,3.563,3.777,7.252,5.429,10.965l1.844-.82c-1.675-3.764-3.526-7.5-5.5-11.114ZM451.278,730.968l.358,1.987c4.054-.731,8.127-1.638,12.107-2.7l-.519-1.949c-3.927,1.045-7.945,1.941-11.946,2.661Zm113.93-195.32c1.343,3.836,2.543,7.775,3.567,11.707l1.952-.508c-1.038-3.985-2.254-7.977-3.615-11.865Zm-90.3,189.031.676,1.9c3.879-1.382,7.749-2.941,11.5-4.636l-.83-1.838C482.557,721.776,478.739,723.314,474.912,724.678Zm96.46-165.365c.7,4,1.24,8.087,1.608,12.133l2.01-.182c-.373-4.1-.922-8.239-1.63-12.3Zm-74.178,155.3.978,1.764c3.6-2,7.165-4.17,10.586-6.454l-1.121-1.677C504.262,710.5,500.749,712.645,497.194,714.617Zm76.393-130.947c.033,4.07-.1,8.186-.4,12.233l2.012.15c.305-4.1.443-8.274.41-12.4ZM517.518,701.044l1.255,1.579c3.222-2.561,6.377-5.289,9.374-8.106l-1.383-1.47C523.808,695.826,520.7,698.517,517.518,701.044Zm54.251-92.984c-.636,4.012-1.45,8.049-2.418,12l1.959.479c.981-4,1.807-8.095,2.452-12.161Zm-36.445,76.246,1.5,1.35c2.753-3.056,5.415-6.268,7.912-9.549l-1.606-1.222C540.665,678.121,538.039,681.29,535.323,684.306Zm30.622-52.493c-1.288,3.845-2.756,7.691-4.364,11.431l1.854.8c1.628-3.791,3.117-7.69,4.422-11.587Zm-15.814,33.041,1.7,1.086c2.215-3.465,4.321-7.08,6.247-10.714l-1.783-.945C554.394,657.869,552.315,661.434,550.131,664.854Z" transform="translate(-51.221 -83.856)" fill="#3f3d56"/>
      <path id="Path_71" data-name="Path 71" d="M576.689,476.318c1.417,1.4,2.827,2.854,4.187,4.313l1.476-1.375c-1.379-1.48-2.808-2.95-4.245-4.372Z" transform="translate(-98.359 -80.995)" fill="#3f3d56"/>
      <path id="Path_72" data-name="Path 72" d="M45.425,492.231c.19-.311,4.678-7.805,6.234-23.367,1.427-14.277.509-38.343-11.971-71.911-23.644-63.594,5.449-114.905,5.746-115.417L44,280.7c-.075.13-7.583,13.212-12.018,34.044a148.52,148.52,0,0,0,6.152,82.784c23.6,63.486,6.055,93.539,5.875,93.836Z" transform="translate(-4.903 -47.876)" fill="#3f3d56"/>
      <circle id="Ellipse_26" data-name="Ellipse 26" cx="10.783" cy="10.783" r="10.783" transform="translate(38.984 208.36)" fill="#db0011"/>
      <circle id="Ellipse_27" data-name="Ellipse 27" cx="10.783" cy="10.783" r="10.783" transform="translate(4.977 248.173)" fill="#3f3d56"/>
      <circle id="Ellipse_28" data-name="Ellipse 28" cx="10.783" cy="10.783" r="10.783" transform="translate(28.201 274.716)" fill="#db0011"/>
      <circle id="Ellipse_29" data-name="Ellipse 29" cx="10.783" cy="10.783" r="10.783" transform="translate(0 297.111)" fill="#db0011"/>
      <circle id="Ellipse_30" data-name="Ellipse 30" cx="10.783" cy="10.783" r="10.783" transform="translate(36.495 331.947)" fill="#3f3d56"/>
      <path id="Path_73" data-name="Path 73" d="M36.566,526.654S47.348,500.112,15,480.2Z" transform="translate(-2.558 -81.903)" fill="#3f3d56"/>
      <path id="Path_74" data-name="Path 74" d="M56.988,529.87s4.907-28.225,42.889-27.984Z" transform="translate(-9.72 -85.601)" fill="#3f3d56"/>
      <path id="Path_75" data-name="Path 75" d="M468.47,734.709a9.953,9.953,0,1,0-9.953-9.953A9.954,9.954,0,0,0,468.47,734.709Zm0-18.248a8.294,8.294,0,1,1-8.294,8.294A8.294,8.294,0,0,1,468.47,716.461Z" transform="translate(-78.203 -121.915)" fill="#2f2e41"/>
      <path id="Path_76" data-name="Path 76" d="M346.9,490.7H643.686v-119.8H396.815Z" transform="translate(-59.166 -63.259)" fill="#f7f7f7"/>
      <path id="Path_77" data-name="Path 77" d="M345.262,486.195H679.711V339.162h-273.8l-.231.562ZM677.9,484.38H347.974l59.153-143.4H677.9Z" transform="translate(-58.887 -57.847)" fill="#3f3d56"/>
      <rect id="Rectangle_11" data-name="Rectangle 11" width="147.94" height="13.614" transform="translate(387.568 326.696)" fill="#db0011"/>
      <rect id="Rectangle_12" data-name="Rectangle 12" width="147.94" height="13.614" transform="translate(387.568 354.832)" fill="#db0011"/>
      <rect id="Rectangle_13" data-name="Rectangle 13" width="147.94" height="13.614" transform="translate(387.568 382.968)" fill="#db0011"/>
      <path id="Path_78" data-name="Path 78" d="M649.568,212.164H897.93V61.205H704.92l-.2.544Zm246.7-1.659H651.944L706.078,62.864H896.271Z" transform="translate(-110.789 -10.439)" fill="#3f3d56"/>
      <path id="Path_79" data-name="Path 79" d="M734,196.156H890.765V79.205H734ZM889.106,194.5H735.659V80.864H889.106Z" transform="translate(-125.189 -13.509)" fill="#3f3d56"/>
      <circle id="Ellipse_31" data-name="Ellipse 31" cx="14.93" cy="14.93" r="14.93" transform="translate(525.037 185.965)" fill="#db0011"/>
      <circle id="Ellipse_32" data-name="Ellipse 32" cx="14.93" cy="14.93" r="14.93" transform="translate(274.546 413.232)" fill="#db0011"/>
      <circle id="Ellipse_33" data-name="Ellipse 33" cx="25.122" cy="25.122" r="25.122" transform="translate(157.289 173.729)" fill="#fbbebe"/>
      <path id="Path_80" data-name="Path 80" d="M230.627,253.825s-8.374,18.842,3.14,26.17-18.842,37.683-18.842,37.683l-33.5-35.59s17.795-11.515,14.655-30.357Z" transform="translate(-30.944 -42.935)" fill="#fbbebe"/>
      <path id="Path_81" data-name="Path 81" d="M304.774,350.168l7.327,41.871s12.561,25.122,12.561,47.1,2.094,26.169,2.094,26.169,20.935,41.871,6.281,43.965S312.1,466.36,312.1,466.36s-19.889-49.2-19.889-64.9L278.6,366.917Z" transform="translate(-47.518 -59.724)" fill="#fbbebe"/>
      <path id="Path_82" data-name="Path 82" d="M125.913,352.692l-2.094,36.637s-7.327,18.842-2.094,52.339l4.187,32.449s-9.421,36.637,0,37.684,20.936-23.029,14.655-36.637V463.65s6.281-49.2,4.187-57.572l7.327-39.777Z" transform="translate(-20.44 -60.155)" fill="#fbbebe"/>
      <path id="Path_83" data-name="Path 83" d="M284.336,700.98,273.869,728.2l-23.029-4.187L265.495,694.7Z" transform="translate(-42.783 -118.486)" fill="#fbbebe"/>
      <path id="Path_84" data-name="Path 84" d="M166.6,728.773l3.14,39.778H143.569l1.047-34.544Z" transform="translate(-24.487 -124.298)" fill="#fbbebe"/>
      <path id="Path_85" data-name="Path 85" d="M245.1,440.351l3.14,15.7s6.281,5.234,6.281,10.468,2.094,7.327,2.094,7.327,1.047,0,2.094,2.094a12.976,12.976,0,0,0,2.094,3.14s61.759,62.806,48.152,94.209-39.778,95.257-39.778,95.257-30.356-9.421-30.356-16.748l29.309-82.7-58.618-60.712-47.1,63.853s9.421,112,3.14,113.051-40.824,8.374-41.871,5.234-6.281-142.361-4.187-147.594,32.45-68.04,32.45-68.04-5.234-6.281-2.094-8.374,8.374-21.982,8.374-21.982S239.868,430.929,245.1,440.351Z" transform="translate(-20.296 -74.539)" fill="#2f2e41"/>
      <path id="Path_86" data-name="Path 86" d="M203.635,296.737l21.1-13.013s12.4.452,15.538,3.592,21.982,11.514,21.982,11.514-4.187,125.612-12.561,121.425-2.094-7.327-8.374-4.187-80.6,4.187-81.648,4.187-2.094-2.094-2.094-2.094l-4.187-63.853-13.608-53.385,40.287-18.537Z" transform="translate(-23.841 -48.163)" fill="#d0cde1"/>
      <path id="Path_87" data-name="Path 87" d="M277.342,300.95h8.374s11.514,3.14,16.749,19.888,7.327,24.075,5.234,26.169-30.357,17.8-30.357,17.8Z" transform="translate(-47.303 -51.33)" fill="#d0cde1"/>
      <path id="Path_88" data-name="Path 88" d="M151.45,303.474,136.8,304.521s-18.842,43.964-13.609,46.057,35.591,17.8,35.591,14.655S151.45,303.474,151.45,303.474Z" transform="translate(-20.854 -51.76)" fill="#d0cde1"/>
      <path id="Path_89" data-name="Path 89" d="M270.484,718.031l8.535-3.14,19.728,26.169s36.637,26.17,3.14,25.123c0,0-26.17-4.187-28.263-11.514,0,0-30.356-8.375-30.356-13.609s6.976-19.186,9.245-19.538S264.2,725.359,270.484,718.031Z" transform="translate(-41.491 -121.93)" fill="#2f2e41"/>
      <path id="Path_90" data-name="Path 90" d="M140.538,762.824s25.447-.414,25.285.316,7.165,17.479,6.118,23.759-10.468,14.655-8.374,18.842-6.281,16.748-23.029,17.8-14.655-17.8-14.655-17.8l8.374-19.888Z" transform="translate(-21.456 -130.086)" fill="#2f2e41"/>
      <path id="Path_91" data-name="Path 91" d="M229.28,203.364a47.788,47.788,0,0,0,3.93,3.007,37.333,37.333,0,0,1,4.737,4.705l1.62,1.814c1.379,1.543,2.842,3.3,2.784,5.373-.022.767-.258,1.512-.35,2.274-.367,3.024,1.481,6.348-.04,8.986-.44.763-1.12,1.359-1.6,2.094a4.9,4.9,0,0,0-.774,3.188c-1.635.067-2.976-1.4-3.489-2.952a29.759,29.759,0,0,1-.693-4.849c-.25-1.617-.951-3.33-2.42-4.05-3.135-1.536-6.736,2.458-10.082,1.463-2.337-.7-3.569-3.591-5.958-4.078-1.709-.348-3.356.669-4.945,1.388s-3.732,1.053-4.855-.281c-.744-.884-.824-2.3-1.811-2.9-1.183-.719-2.663.283-3.559,1.339s-1.885,2.346-3.268,2.308c-1.836-.051-3.242-2.5-4.985-1.916-1.967.654-1.062,3.8-2.256,5.5-1.009,1.433-3.121,1.349-4.858,1.112a1.741,1.741,0,0,1-1.811-2.323l.726-9.618a4.639,4.639,0,0,1,.426-1.92c.5-.914,1.55-1.378,2.261-2.143,1.5-1.61,1.423-4.433,3.283-5.6.965-.608,2.228-.59,3.187-1.208,1.229-.793,1.625-2.381,2.486-3.564a7.592,7.592,0,0,1,5.464-2.69c2.08-.216,4.18.044,6.271-.024,4.25-.139,8.5-1.335,12.772-.635C225.192,197.77,226.756,200.932,229.28,203.364Z" transform="translate(-31.466 -33.59)" fill="#2f2e41"/>
    </g>
  </g>
</svg>
