<svg xmlns="http://www.w3.org/2000/svg" width="709.908" height="485.065" viewBox="0 0 709.908 485.065">
  <g id="Group_7" data-name="Group 7" transform="translate(-31)">
    <path id="Path_183" data-name="Path 183" d="M290.674,470.708H31V138.092H290.674ZM32.459,469.249H289.215v-329.7H32.459Z" transform="translate(0 -37.365)" fill="#2f2e41"/>
    <rect id="Rectangle_100" data-name="Rectangle 100" width="224.662" height="142.237" transform="translate(48.506 121.151)" fill="#f2f2f2"/>
    <rect id="Rectangle_101" data-name="Rectangle 101" width="224.662" height="152.449" transform="translate(48.506 257.553)" fill="#f7f7f7"/>
    <rect id="Rectangle_102" data-name="Rectangle 102" width="11.671" height="142.966" transform="translate(155.002 120.422)" fill="#2f2e41"/>
    <rect id="Rectangle_103" data-name="Rectangle 103" width="11.671" height="142.966" transform="translate(261.497 120.422)" fill="#2f2e41"/>
    <rect id="Rectangle_104" data-name="Rectangle 104" width="224.662" height="11.671" transform="translate(48.506 251.717)" fill="#2f2e41"/>
    <path id="Path_184" data-name="Path 184" d="M91.079,271.092,71,284.589v11.165l30.418-24.662Z" transform="translate(-10.823 -73.352)" fill="#fff"/>
    <path id="Path_185" data-name="Path 185" d="M124.162,271.092,71,312.709v9.512l69.289-51.129Z" transform="translate(-10.823 -73.352)" fill="#fff"/>
    <rect id="Rectangle_105" data-name="Rectangle 105" width="11.671" height="142.966" transform="translate(48.506 120.422)" fill="#2f2e41"/>
    <path id="Path_186" data-name="Path 186" d="M301.856,180.28,257,237.175l13.859,1.459,38.659-60.542Z" transform="translate(-61.151 -48.188)" fill="#fff"/>
    <rect id="Rectangle_106" data-name="Rectangle 106" width="224.662" height="11.671" transform="translate(48.506 120.422)" fill="#2f2e41"/>
    <rect id="Rectangle_107" data-name="Rectangle 107" width="224.662" height="11.671" transform="translate(48.506 186.07)" fill="#2f2e41"/>
    <path id="Path_187" data-name="Path 187" d="M837.674,375.708H578V43.092H837.674Zm-258.215-1.459H836.215V44.551H579.459Z" transform="translate(-148.007 -11.66)" fill="#2f2e41"/>
    <rect id="Rectangle_108" data-name="Rectangle 108" width="224.662" height="142.237" transform="translate(447.499 51.856)" fill="#f2f2f2"/>
    <rect id="Rectangle_109" data-name="Rectangle 109" width="224.662" height="152.449" transform="translate(447.499 188.258)" fill="#f7f7f7"/>
    <rect id="Rectangle_110" data-name="Rectangle 110" width="11.671" height="142.966" transform="translate(553.995 51.127)" fill="#2f2e41"/>
    <rect id="Rectangle_111" data-name="Rectangle 111" width="11.671" height="142.966" transform="translate(660.49 51.127)" fill="#2f2e41"/>
    <rect id="Rectangle_112" data-name="Rectangle 112" width="224.662" height="11.671" transform="translate(447.499 182.422)" fill="#2f2e41"/>
    <path id="Path_188" data-name="Path 188" d="M638.08,176.092,618,189.589v11.165l30.418-24.662Z" transform="translate(-158.83 -47.647)" fill="#fff"/>
    <path id="Path_189" data-name="Path 189" d="M671.162,176.092,618,217.709v9.512l69.289-51.129Z" transform="translate(-158.83 -47.647)" fill="#fff"/>
    <rect id="Rectangle_113" data-name="Rectangle 113" width="11.671" height="142.966" transform="translate(447.499 51.127)" fill="#2f2e41"/>
    <path id="Path_190" data-name="Path 190" d="M848.856,85.28,804,142.175l13.859,1.459,38.659-60.542Z" transform="translate(-209.158 -22.483)" fill="#fff"/>
    <rect id="Rectangle_114" data-name="Rectangle 114" width="224.662" height="11.671" transform="translate(447.499 51.127)" fill="#2f2e41"/>
    <rect id="Rectangle_115" data-name="Rectangle 115" width="224.662" height="11.671" transform="translate(447.499 116.775)" fill="#2f2e41"/>
    <ellipse id="Ellipse_62" data-name="Ellipse 62" cx="13.417" cy="8.09" rx="13.417" ry="8.09" transform="translate(547.207 169.123) rotate(-48.312)" fill="#ff6584"/>
    <circle id="Ellipse_63" data-name="Ellipse 63" cx="35.122" cy="35.122" r="35.122" transform="translate(552.503 154.223)" fill="#ff6584"/>
    <path id="Path_191" data-name="Path 191" d="M638.991,238.355l-32.646,2.67a5.4,5.4,0,0,0-4.947,4.994l-1.219,16.822a5.4,5.4,0,0,0,5,5.778c.13.009.26.014.39.014h14.714v.789H626.2v-.789h3.157v.789h5.919v-.789h3.156a5.4,5.4,0,0,0,5.395-5.125l1-19.492a5.4,5.4,0,0,0-5.118-5.671A5.346,5.346,0,0,0,638.991,238.355Z" transform="translate(-154.004 -64.489)" fill="#3f3d56"/>
    <path id="Path_192" data-name="Path 192" d="M661.643,303.2l-46.172-21.7-8.287,13.023s24.008,15.327,25.256,16.575c1.776,1.775,20.915,14.207,28.414,12.234S664.8,305.172,661.643,303.2Z" transform="translate(-155.903 -76.166)" fill="#ffb8b8"/>
    <path id="Path_193" data-name="Path 193" d="M722.93,447.3l-5.919,13.417h61.278l-4.451-14.206Z" transform="translate(-185.62 -120.815)" fill="#2f2e41"/>
    <path id="Path_194" data-name="Path 194" d="M776.444,295.3s2.368,13.023,0,14.6,15.785,20.915,15.785,20.915l7.5-6.709,2.368-15.39s-7.1-9.866-3.947-18.548S776.444,295.3,776.444,295.3Z" transform="translate(-201.644 -77.738)" fill="#ffb8b8"/>
    <circle id="Ellipse_64" data-name="Ellipse 64" cx="25.256" cy="25.256" r="25.256" transform="translate(556.647 170.995)" fill="#ffb8b8"/>
    <path id="Path_195" data-name="Path 195" d="M775.386,327.853s-9.866-15-15.391-16.18-10.655-.394-13.812,0-13.812-3.552-20.126-.789,0,35.122,0,35.122-7.1,41.436-3.946,52.092.789,12.628-.789,13.812,35.912,11.838,35.912,11.838H792.75s0-11.444,3.552-14.206,3.157-61.168,3.157-61.168L811.3,325.485s-1.973-8.682-10.261-9.076a38.758,38.758,0,0,1-15.685-4.746l-5.625,16.19Z" transform="translate(-186.774 -83.851)" fill="#db0011"/>
    <path id="Path_196" data-name="Path 196" d="M714.988,312.026l-3.552-1.974s-6.708.395-7.892,0-16.18-5.13-22.1-2.368-9.866-.789-9.866-.789,19.337,16.575-4.341,21.7c0,0,.395,1.974,6.314,3.158s7.1,2.368,9.471,4.341,7.1,3.946,10.26,4.735,13.418,7.5,15,5.919,4.341-7.1,4.341-7.1Z" transform="translate(-172.153 -83.02)" fill="#db0011"/>
    <path id="Path_197" data-name="Path 197" d="M830.119,325.317l7.5,4.341s9.865,29.2,8.287,36.306-3.157,5.919-.789,10.655,4.736,5.13,3.157,9.471-.789,15-3.157,19.337S831.3,423.58,821.437,400.3,830.119,325.317,830.119,325.317Z" transform="translate(-213.094 -88.024)" fill="#db0011"/>
    <path id="Path_198" data-name="Path 198" d="M842.262,377.056s-5.525-11.049-6.708-11.839-6.709-28.018-6.709-28.018,8.682-14.207.789-20.521c0,0,14.6-20.521,9.866-20.126s-14.207,15.391-14.207,15.391-2.17-.592-1.381-3.749,3.748-14.4,1.381-14.8-7.1,16.575-7.1,16.575-9.668,17.561-6.708,23.678a76.16,76.16,0,0,0,5.919,9.865l6.708,48.935S837.132,408.232,842.262,377.056Z" transform="translate(-211.03 -79.385)" fill="#ffb8b8"/>
    <ellipse id="Ellipse_65" data-name="Ellipse 65" cx="4.341" cy="1.973" rx="4.341" ry="1.973" transform="translate(478.115 177.309)" fill="#db0011"/>
    <path id="Path_199" data-name="Path 199" d="M607.089,284.414h-5.525s-12.234-3.946-12.234-13.023,3.552-27.624,14.6-27.229.789,24.862.789,24.862l6.689,2.729.02,8.32Z" transform="translate(-151.073 -66.063)" fill="#ffb8b8"/>
    <ellipse id="Ellipse_66" data-name="Ellipse 66" cx="22.494" cy="11.444" rx="22.494" ry="11.444" transform="translate(555.266 168.035)" fill="#ff6584"/>
    <ellipse id="Ellipse_67" data-name="Ellipse 67" cx="1.973" cy="4.341" rx="1.973" ry="4.341" transform="translate(606.173 189.345)" fill="#ffb8b8"/>
    <ellipse id="Ellipse_68" data-name="Ellipse 68" cx="8.09" cy="13.417" rx="8.09" ry="13.417" transform="matrix(0.9, -0.437, 0.437, 0.9, 606.65, 162.262)" fill="#ff6584"/>
    <rect id="Rectangle_116" data-name="Rectangle 116" width="102.119" height="1.459" transform="translate(446.951 401.181)" fill="#f2f2f2"/>
    <rect id="Rectangle_117" data-name="Rectangle 117" width="1.459" height="13.494" transform="translate(519.893 402.276)" fill="#f2f2f2"/>
    <rect id="Rectangle_118" data-name="Rectangle 118" width="1.459" height="13.494" transform="translate(475.398 402.276)" fill="#f2f2f2"/>
    <rect id="Rectangle_119" data-name="Rectangle 119" width="102.119" height="1.459" transform="translate(363.797)" fill="#f2f2f2"/>
    <rect id="Rectangle_120" data-name="Rectangle 120" width="1.459" height="13.494" transform="translate(436.739 1.094)" fill="#f2f2f2"/>
    <rect id="Rectangle_121" data-name="Rectangle 121" width="1.459" height="13.494" transform="translate(392.245 1.094)" fill="#f2f2f2"/>
    <rect id="Rectangle_122" data-name="Rectangle 122" width="102.119" height="1.459" transform="translate(320.761 183.085)" fill="#f2f2f2"/>
    <rect id="Rectangle_123" data-name="Rectangle 123" width="1.459" height="13.494" transform="translate(393.703 184.179)" fill="#f2f2f2"/>
    <rect id="Rectangle_124" data-name="Rectangle 124" width="1.459" height="13.494" transform="translate(349.209 184.179)" fill="#f2f2f2"/>
    <rect id="Rectangle_125" data-name="Rectangle 125" width="102.119" height="1.459" transform="translate(98.288 25.53)" fill="#f2f2f2"/>
    <rect id="Rectangle_126" data-name="Rectangle 126" width="1.459" height="13.494" transform="translate(171.23 26.624)" fill="#f2f2f2"/>
    <rect id="Rectangle_127" data-name="Rectangle 127" width="1.459" height="13.494" transform="translate(126.735 26.624)" fill="#f2f2f2"/>
    <rect id="Rectangle_128" data-name="Rectangle 128" width="102.119" height="1.459" transform="translate(488.528 455.159)" fill="#f2f2f2"/>
    <rect id="Rectangle_129" data-name="Rectangle 129" width="1.459" height="13.494" transform="translate(516.246 442.029)" fill="#f2f2f2"/>
    <rect id="Rectangle_130" data-name="Rectangle 130" width="1.459" height="13.494" transform="translate(560.741 442.029)" fill="#f2f2f2"/>
    <rect id="Rectangle_131" data-name="Rectangle 131" width="102.119" height="1.459" transform="translate(329.514 483.606)" fill="#f2f2f2"/>
    <rect id="Rectangle_132" data-name="Rectangle 132" width="1.459" height="13.494" transform="translate(357.232 470.476)" fill="#f2f2f2"/>
    <rect id="Rectangle_133" data-name="Rectangle 133" width="1.459" height="13.494" transform="translate(401.727 470.476)" fill="#f2f2f2"/>
    <rect id="Rectangle_134" data-name="Rectangle 134" width="102.119" height="1.459" transform="translate(342.644 382.216)" fill="#f2f2f2"/>
    <rect id="Rectangle_135" data-name="Rectangle 135" width="1.459" height="13.494" transform="translate(370.362 369.087)" fill="#f2f2f2"/>
    <rect id="Rectangle_136" data-name="Rectangle 136" width="1.459" height="13.494" transform="translate(414.857 369.087)" fill="#f2f2f2"/>
    <rect id="Rectangle_137" data-name="Rectangle 137" width="102.119" height="1.459" transform="translate(298.149 236.332)" fill="#f2f2f2"/>
    <rect id="Rectangle_138" data-name="Rectangle 138" width="1.459" height="13.494" transform="translate(325.867 223.203)" fill="#f2f2f2"/>
    <rect id="Rectangle_139" data-name="Rectangle 139" width="1.459" height="13.494" transform="translate(370.362 223.203)" fill="#f2f2f2"/>
    <rect id="Rectangle_140" data-name="Rectangle 140" width="102.119" height="1.459" transform="translate(226.666 75.86)" fill="#f2f2f2"/>
    <rect id="Rectangle_141" data-name="Rectangle 141" width="1.459" height="13.494" transform="translate(254.384 62.73)" fill="#f2f2f2"/>
    <rect id="Rectangle_142" data-name="Rectangle 142" width="1.459" height="13.494" transform="translate(298.879 62.73)" fill="#f2f2f2"/>
    <rect id="Rectangle_143" data-name="Rectangle 143" width="102.119" height="1.459" transform="translate(32.64 476.312)" fill="#f2f2f2"/>
    <rect id="Rectangle_144" data-name="Rectangle 144" width="1.459" height="13.494" transform="translate(60.358 463.182)" fill="#f2f2f2"/>
    <rect id="Rectangle_145" data-name="Rectangle 145" width="1.459" height="13.494" transform="translate(104.853 463.182)" fill="#f2f2f2"/>
    <rect id="Rectangle_146" data-name="Rectangle 146" width="102.119" height="1.459" transform="translate(638.789 423.064)" fill="#f2f2f2"/>
    <rect id="Rectangle_147" data-name="Rectangle 147" width="1.459" height="13.494" transform="translate(666.507 409.934)" fill="#f2f2f2"/>
    <rect id="Rectangle_148" data-name="Rectangle 148" width="1.459" height="13.494" transform="translate(711.001 409.934)" fill="#f2f2f2"/>
    <circle id="Ellipse_69" data-name="Ellipse 69" cx="6.565" cy="6.565" r="6.565" transform="translate(357.051 296.543)" fill="#f7f7f7"/>
    <circle id="Ellipse_70" data-name="Ellipse 70" cx="6.565" cy="6.565" r="6.565" transform="translate(594.113 389.909)" fill="#f7f7f7"/>
    <circle id="Ellipse_71" data-name="Ellipse 71" cx="12.4" cy="12.4" r="12.4" transform="translate(357.78 126.588)" fill="#f7f7f7"/>
  </g>
</svg>
